<svg width="305" height="276" viewBox="0 0 305 276" fill="none" xmlns="http://www.w3.org/2000/svg">
<ellipse cx="152.852" cy="137.632" rx="88.5" ry="81.5" transform="rotate(-179.915 152.852 137.632)" fill="#FFF844"/>
<path d="M226.408 0C217.448 14.6392 213.181 23.1906 208.617 39.8241C211.536 54.8308 217.173 54.2355 226.408 55.0202C239.543 47.3667 246.086 40.8784 256.988 27.2481C251.576 12.8396 247.755 5.21456 226.408 0Z" fill="#F9CB54"/>
<path d="M270.888 68.1202C262.358 72.2586 257.723 75.8398 250.316 89.6043C250.654 100.359 254.801 102.641 264.216 104.8C264.216 104.8 296.306 101.808 291.46 89.6043C286.613 77.401 282.244 72.536 270.888 68.1202Z" fill="#F9CB54"/>
<path d="M302.024 119.996C286.576 122.459 276.972 125.368 256.988 135.192C251.866 146.362 254.266 151.05 264.216 157.724C279.439 161.809 287.643 161.149 302.024 157.724C306.188 142.578 305.792 134.357 302.024 119.996Z" fill="#F9CB54"/>
<path d="M256.988 197.025C246.427 199.754 242.314 202.846 243.088 215.365C250.058 231.967 256.677 238.259 270.888 246.805C285.95 239.137 290.571 233.199 291.46 219.456C282.281 209.571 274.404 204.746 256.988 197.025Z" fill="#F9CB54"/>
<path d="M215.845 227.417C209.302 227.703 206.168 228.613 203.057 233.705C200.009 243.313 200.206 248.194 203.057 256.237C211.751 260.725 216.884 260.511 226.408 256.237C224.173 239.981 222.133 232.95 215.845 227.417Z" fill="#F9CB54"/>
<path d="M151.349 239.993C147.007 235.939 144.572 235.96 140.23 239.993C133.361 250.985 132.153 258.089 131.89 271.433C141.309 276.985 147.446 278.037 161.913 271.433C160.885 258.417 159.541 251.302 151.349 239.993Z" fill="#F9CB54"/>
<path d="M75.7344 215.365C64.2869 219.142 58.44 223.165 49.0467 233.705C54.0796 253.204 61.3712 260.377 80.1823 268.289C89.7163 253.181 94.9288 244.676 96.3061 227.417C91.5405 219.296 88.3216 215.314 75.7344 215.365Z" fill="#F9CB54"/>
<path d="M49.0467 157.724C32.2346 158.332 24.1251 162.017 10.1272 169.776C8.39095 183.019 12.3091 186.619 22.915 190.213C36.5524 185.146 43.9252 181.001 56.2746 169.776C56.0924 166.454 55.1486 164.15 49.0467 157.724Z" fill="#F9CB54"/>
<path d="M41.2628 104.8C27.4511 99.8304 19.0585 99.0348 3.45526 99.5603C-0.803443 113.11 -1.48739 120.853 3.45526 135.192C22.8453 134.206 32.9944 132.799 49.0467 127.856C51.7507 117.293 51.2837 111.91 41.2628 104.8Z" fill="#F9CB54"/>
<path d="M62.9465 20.4361C48.6655 23.4017 45.3087 28.7489 41.2628 39.8241C57.9284 55.0755 66.2684 59.0697 80.1823 61.8322C84.7948 59.6901 85.3274 58.0532 85.7422 55.0202C79.5709 40.9516 74.4574 33.4045 62.9465 20.4361Z" fill="#F9CB54"/>
<path d="M161.913 8.38402C155.257 2.50883 142.999 5.67514 140.23 8.38402C137.461 11.0929 136.223 39.1316 140.23 39.8241C144.572 40.577 147.007 40.5675 151.349 39.8241C156.795 40.344 168.57 14.2592 161.913 8.38402Z" fill="#F9CB54"/>
</svg>
